<svg id="Lager_1" data-name="Lager 1" xmlns="http://www.w3.org/2000/svg" viewBox="0 0 956 255.23"><defs><style>.cls-1{fill:#34d399;}</style></defs><title>Cirqle svart</title><polygon class="cls-1" points="201.62 0 150.48 0 150.48 49.25 205.97 49.25 205.97 104.75 255.23 104.75 255.23 53.6 255.23 0 201.62 0"/><path class="cls-1" d="M109.91,204.2A77.24,77.24,0,0,1,52.42,146.7c-11.89-51.4,26.82-97.06,76.19-97.06V.39A127.64,127.64,0,1,0,256.23,128H207C207,177.37,161.31,216.08,109.91,204.2Z" transform="translate(-1 -0.39)"/><path d="M489.21,98.83H457.37c-2.63-24.74-19.21-40-44.22-40-31.85,0-51.33,26.32-51.33,69.49S381,197.8,412.36,197.8c25,0,41.85-15.27,45.27-40.8H490c-3.68,42.9-32.64,69-77.65,69-51.59,0-83.17-37.11-83.17-97.65s31.85-97.65,84-97.65C458.95,30.66,487.37,59.09,489.21,98.83Z" transform="translate(-1 -0.39)"/><path d="M505.36,63.3V34.61h30V63.3Zm0,158.71V88.31h30V222Z" transform="translate(-1 -0.39)"/><path d="M635.54,87.78v26.58A49.39,49.39,0,0,0,625,113.31c-24,0-37.11,15.27-37.11,43.17V222h-30V88.31h27.9V108h.52c9-14.48,21.58-21.58,38.17-21.58A52.78,52.78,0,0,1,635.54,87.78Z" transform="translate(-1 -0.39)"/><path d="M731.13,106.73h.53V88.31h29.22V255.6h-30v-51h-.53c-7.63,12.9-22.63,20.53-39.22,20.53-34,0-55.54-27.37-55.54-70s21.85-70.28,55.8-70.28C708.23,84.89,723.24,93,731.13,106.73Zm-64.22,48.43c0,28.43,12.89,46.85,33.16,46.85,19.48,0,32.37-17.9,32.37-46.85,0-29.22-12.89-46.85-32.37-46.85C679.81,108.31,666.91,126.73,666.91,155.16Z" transform="translate(-1 -0.39)"/><path d="M783.68,222V34.61h30V222Z" transform="translate(-1 -0.39)"/><path d="M924.63,181.74h30.79c-5,24-26.58,44.22-61.59,44.22-40.8,0-64.75-29.22-64.75-72.38,0-39.48,23.69-69.22,64.22-69.22,30.53,0,52.64,17.64,60,45.53,2.63,8.42,3.68,18.42,3.68,31.32H858.82c1.05,30.27,16.32,42.64,35,42.64C910.94,203.85,922,194.64,924.63,181.74Zm-65.28-40.27H927c-2.11-23.42-15.79-35-33.69-35C875.14,106.47,862,118.31,859.35,141.47Z" transform="translate(-1 -0.39)"/></svg>